<?xml version="1.0" encoding="UTF-8"?>
<svg id="Camada_1" xmlns="http://www.w3.org/2000/svg" xmlns:xlink="http://www.w3.org/1999/xlink" version="1.1" viewBox="0 0 207.24 203.4">
  <!-- Generator: Adobe Illustrator 30.2.1, SVG Export Plug-In . SVG Version: 2.1.1 Build 1)  -->
  <defs>
    <style>
      .st0 {
        fill: #565b68;
      }

      .st1 {
        fill: url(#Gradiente_sem_nome_349);
      }
    </style>
    <linearGradient id="Gradiente_sem_nome_349" data-name="Gradiente sem nome 349" x1="59.9" y1="52.32" x2="193.15" y2="208.41" gradientUnits="userSpaceOnUse">
      <stop offset="0" stop-color="#1f2775"/>
      <stop offset="1" stop-color="#5f9ac4"/>
    </linearGradient>
  </defs>
  <path class="st1" d="M79.21,114.49L21.71,29.37C13.14,16.43,8.38,11.29,0,9.76V1.57c8.76.38,28.75,1.71,46.27,1.71s37.51-1.33,46.08-1.71v8.19c-7.62,0-13.14,2.86-13.14,7.81,0,1.52.57,3.43,1.9,5.52l36.94,54.84,4.38,6.66,61.31,91.21c6.47,9.14,12.56,17.71,21.89,19.42v8.19c-8-.38-26.08-1.53-41.7-1.53-19.23,0-41.13,1.14-50.84,1.53v-8.19c7.8,0,13.33-2.85,13.33-7.81,0-1.71-.57-3.43-1.9-5.52l-40.75-60.55-4.57-6.85Z"/>
  <g>
    <path class="st0" d="M122.49,71.01l10.42-13.8c8.94-11.62,13.33-21.71,13.33-29.89,0-10.66-7.81-17.71-23.61-19.04V.47c15.04.76,31.03,1.33,44.18,1.33,11.61,0,19.99-.57,27.41-1.33v7.81c-10.85,3.62-22.85,13.9-35.6,30.08l-31.75,39.32-4.38-6.66Z"/>
    <path class="st0" d="M80.52,124.3l-10.27,13.45c-8.95,11.61-13.13,22.08-13.13,31.03,0,14.66,11.04,24.37,28.37,25.7v7.81c-15.24-.76-43.04-1.14-55.98-1.14-11.62,0-19.99.38-27.61,1.14v-7.81c11.99-4.38,22.09-12.95,35.8-30.08l38.26-46.96,4.57,6.85Z"/>
  </g>
</svg>