<?xml version="1.0" encoding="UTF-8"?>
<svg id="Camada_1" xmlns="http://www.w3.org/2000/svg" xmlns:xlink="http://www.w3.org/1999/xlink" version="1.1" viewBox="0 0 86.15 84.56">
  <!-- Generator: Adobe Illustrator 30.2.1, SVG Export Plug-In . SVG Version: 2.1.1 Build 1)  -->
  <defs>
    <style>
      .st0 {
        fill: url(#Gradiente_sem_nome_11);
      }

      .st1 {
        fill: #9393db;
      }
    </style>
    <linearGradient id="Gradiente_sem_nome_11" data-name="Gradiente sem nome 11" x1="25.1" y1="21.26" x2="80.92" y2="86.66" gradientUnits="userSpaceOnUse">
      <stop offset="0" stop-color="#1f27b5"/>
      <stop offset="1" stop-color="#5f10c4"/>
    </linearGradient>
  </defs>
  <path class="st0" d="M33.18,47.3L9.09,11.65C5.51,6.22,3.51,4.07,0,3.43V0c3.67.16,12.04.72,19.39.72s15.71-.56,19.3-.72v3.43c-3.19,0-5.51,1.2-5.51,3.27,0,.64.24,1.44.8,2.31l15.48,22.97,1.83,2.79,25.69,38.21c2.71,3.83,5.26,7.42,9.17,8.14v3.43c-3.35-.16-10.93-.64-17.47-.64-8.06,0-17.23.48-21.3.64v-3.43c3.27,0,5.58-1.2,5.58-3.27,0-.72-.24-1.44-.8-2.31l-17.07-25.37-1.91-2.87Z"/>
  <path class="st1" d="M51.32,29.55l4.36-5.78c3.75-4.87,5.58-9.09,5.58-12.52,0-4.47-3.27-7.42-9.89-7.98V0c6.3.32,13,.56,18.51.56,4.86,0,8.37-.24,11.49-.56v3.27c-4.55,1.52-9.57,5.82-14.92,12.6l-13.3,16.47-1.83-2.79Z"/>
  <path class="st1" d="M33.74,51.88l-4.3,5.64c-3.75,4.86-5.5,9.25-5.5,13,0,6.14,4.62,10.21,11.89,10.77v3.27c-6.38-.32-18.03-.48-23.45-.48-4.87,0-8.37.16-11.57.48v-3.27c5.02-1.83,9.26-5.42,15-12.6l16.03-19.67,1.91,2.87Z"/>
</svg>