<?xml version="1.0" encoding="UTF-8"?>
<svg id="Camada_1" xmlns="http://www.w3.org/2000/svg" xmlns:xlink="http://www.w3.org/1999/xlink" version="1.1" viewBox="0 0 263.93 46.46">
  <!-- Generator: Adobe Illustrator 30.2.1, SVG Export Plug-In . SVG Version: 2.1.1 Build 1)  -->
  <defs>
    <style>
      .st0 {
        fill: #565b68;
      }

      .st1 {
        fill: #4f4f56;
      }

      .st2 {
        fill: url(#Gradiente_sem_nome_349);
      }
    </style>
    <linearGradient id="Gradiente_sem_nome_349" data-name="Gradiente sem nome 349" x1="214.01" y1="23.31" x2="233.93" y2="46.65" gradientUnits="userSpaceOnUse">
      <stop offset="0" stop-color="#1f2775"/>
      <stop offset="1" stop-color="#5f9ac4"/>
    </linearGradient>
  </defs>
  <path class="st2" d="M216.9,32.6l-8.6-12.72c-1.28-1.94-1.99-2.7-3.25-2.93v-1.22c1.31.06,4.3.26,6.92.26s5.61-.2,6.89-.26v1.22c-1.14,0-1.96.43-1.96,1.17,0,.23.09.51.28.83l5.52,8.2.65,1,9.17,13.64c.97,1.37,1.88,2.65,3.27,2.9v1.22c-1.2-.06-3.9-.23-6.23-.23-2.88,0-6.15.17-7.6.23v-1.22c1.17,0,1.99-.43,1.99-1.17,0-.26-.09-.51-.28-.83l-6.09-9.05-.68-1.02Z"/>
  <g>
    <path class="st0" d="M223.37,26.1l1.56-2.06c1.34-1.74,1.99-3.25,1.99-4.47,0-1.59-1.17-2.65-3.53-2.85v-1.17c2.25.11,4.64.2,6.6.2,1.74,0,2.99-.09,4.1-.2v1.17c-1.62.54-3.42,2.08-5.32,4.5l-4.75,5.88-.65-1Z"/>
    <path class="st0" d="M217.09,34.07l-1.54,2.01c-1.34,1.74-1.96,3.3-1.96,4.64,0,2.19,1.65,3.64,4.24,3.84v1.17c-2.28-.11-6.43-.17-8.37-.17-1.74,0-2.99.06-4.13.17v-1.17c1.79-.65,3.3-1.94,5.35-4.5l5.72-7.02.68,1.02Z"/>
  </g>
  <g>
    <path class="st1" d="M50.15,5.52c-3.73.17-4.38.77-4.38,5.01v28.92c0,4.24.68,4.84,4.38,5.01v1.17c-2.16-.11-5.78-.17-9.17-.17-3.73,0-7.23.06-9.22.17v-1.17c3.99-.17,4.73-.77,4.73-5.01V9.11l-14.03,36.61h-.94L5.77,8.11v27.95c0,6.4.51,7.89,5.66,8.4v1.17c-1.51-.11-4.21-.17-6.32-.17-1.82,0-3.84.06-5.07.17v-1.17c3.73-.51,4.38-2.05,4.38-7.69V10.53C4.43,6.29,3.75,5.69.05,5.52v-1.17c1.22.11,3.25.17,5.07.17,3.39,0,6.69-.06,9.22-.17l11.76,28.35,10.76-28.18h4.13c3.39,0,7-.06,9.17-.17v1.17Z"/>
    <path class="st1" d="M77.19,36.98l1.05.4c-1.39,4.38-5.21,9.08-11.67,9.08-7.86,0-13.44-4.95-13.44-15.6s5.98-16.2,14.26-16.2c6.8,0,10.96,3.81,10.96,12.95h-16.31c-.09.85-.11,1.82-.11,2.76,0,8.11,3.9,11.27,7.6,11.27,2.33,0,5.3-.8,7.66-4.67ZM61.88,26.5h9.14c.11-5.69-1.11-10.59-3.96-10.59-2.62,0-4.7,3.05-5.18,10.59Z"/>
    <path class="st1" d="M110.81,39.31c0,3.47.91,5.12,3.73,5.12v1.22c-1.22-.11-2.45-.17-3.62-.17-3.24,0-6.09.23-8.51.8v-5.27c-1.91,3.9-5.38,5.44-9.39,5.44-3.22,0-5.15-.94-6.38-2.31-1.28-1.45-1.76-3.7-1.76-7.54v-14.77c0-3.5-.91-5.15-3.73-5.15v-1.22c1.22.11,2.45.2,3.61.2,3.25,0,6.06-.26,8.51-.83v24.17c0,2.9.57,4.9,3.47,4.9,3.1,0,5.66-2.9,5.66-6.75v-15.32c0-3.5-.91-5.15-3.73-5.15v-1.22c1.22.11,2.45.2,3.62.2,3.25,0,6.09-.26,8.51-.83v24.48Z"/>
    <path class="st1" d="M148.41,13.21c0,1.74.06,3.36.17,4.44h-1.34c-1.54-9.05-4.58-11.96-10.02-11.96h-1.94c-3.39,0-4.01.51-4.01,4.16v14.69h2.05c4.67,0,6.32-4.55,6.92-7.71h1.37c-.17,2.56-.23,4.3-.23,5.66,0,1,.03,1.82.03,2.62,0,1.94.06,3.84.37,8.28h-1.34c-.63-4.07-2.45-7.69-7.12-7.69h-2.05v13.41c0,4.55,1.05,5.18,6.23,5.24v1.28c-2.39-.09-6.46-.17-10.62-.17-3.36,0-6.72.09-9.25.17v-1.17c3.7-.17,4.36-.77,4.36-5.01V10.53c0-4.24-.68-4.84-4.36-5.01v-1.17c6.35.17,15.09.17,18.99.17,3.56,0,8.6,0,12.18-.17-.28,3.53-.4,7.12-.4,8.85Z"/>
    <path class="st1" d="M163.01,40.22c0,3.25,1.02,4.18,3.73,4.18v1.22c-1.48-.06-4.75-.23-7.77-.23s-6.52.17-8.08.23v-1.22c2.73,0,3.73-.94,3.73-4.18V7c0-3.5-.91-5.15-3.73-5.15V.63c1.22.11,2.45.17,3.61.17,3.25,0,6.09-.23,8.51-.8v40.22Z"/>
    <path class="st1" d="M198.31,39.31c0,3.47.91,5.12,3.73,5.12v1.22c-1.22-.11-2.45-.17-3.62-.17-3.25,0-6.09.23-8.51.8v-5.27c-1.91,3.9-5.38,5.44-9.39,5.44-3.22,0-5.15-.94-6.38-2.31-1.28-1.45-1.76-3.7-1.76-7.54v-14.77c0-3.5-.91-5.15-3.73-5.15v-1.22c1.22.11,2.45.2,3.62.2,3.25,0,6.06-.26,8.51-.83v24.17c0,2.9.57,4.9,3.47,4.9,3.1,0,5.66-2.9,5.66-6.75v-15.32c0-3.5-.91-5.15-3.73-5.15v-1.22c1.22.11,2.45.2,3.61.2,3.25,0,6.09-.26,8.51-.83v24.48Z"/>
    <path class="st1" d="M263.98,30.57c0,11.56-5.89,15.88-14.29,15.88s-14.26-4.33-14.26-15.88,5.89-15.91,14.26-15.91,14.29,4.38,14.29,15.91ZM244.23,30.57c0,10.45,2.31,14.72,5.47,14.72s5.49-4.27,5.49-14.72-2.31-14.75-5.49-14.75-5.47,4.33-5.47,14.75Z"/>
  </g>
</svg>