<?xml version="1.0" encoding="UTF-8"?>
<svg id="Camada_1" xmlns="http://www.w3.org/2000/svg" xmlns:xlink="http://www.w3.org/1999/xlink" version="1.1" viewBox="0 0 86.15 84.56">
  <defs>
    <style>
      .st0 {
        fill: #565b68;
      }
      .st1 {
        fill: url(#favicon_gradient);
      }
    </style>
    <linearGradient id="favicon_gradient" x1="25.01" y1="21.83" x2="79.41" y2="85.56" gradientUnits="userSpaceOnUse">
      <stop offset="0" stop-color="#1f2775"/>
      <stop offset="1" stop-color="#5f9ac4"/>
    </linearGradient>
  </defs>
  <path class="st1" d="M32.89,47.21L9.41,12.46C5.91,7.17,3.97,5.07.55,4.45V1.11c3.58.16,11.74.7,18.89.7s15.31-.54,18.81-.7v3.34c-3.11,0-5.37,1.17-5.37,3.19,0,.62.23,1.4.78,2.25l15.08,22.39,1.79,2.72,25.03,37.24c2.64,3.73,5.13,7.23,8.94,7.93v3.34c-3.26-.16-10.65-.62-17.02-.62-7.85,0-16.79.47-20.76.62v-3.34c3.19,0,5.44-1.17,5.44-3.19,0-.7-.23-1.4-.78-2.25l-16.64-24.72-1.86-2.8Z"/>
  <g>
    <path class="st0" d="M50.56,29.46l4.25-5.64c3.65-4.74,5.44-8.86,5.44-12.21,0-4.35-3.19-7.23-9.64-7.77V.65c6.14.31,12.67.54,18.04.54,4.74,0,8.16-.23,11.19-.54v3.19c-4.43,1.48-9.33,5.68-14.54,12.28l-12.96,16.05-1.79-2.72Z"/>
    <path class="st0" d="M33.43,51.21l-4.19,5.49c-3.65,4.74-5.36,9.02-5.36,12.67,0,5.99,4.51,9.95,11.58,10.49v3.19c-6.22-.31-17.57-.47-22.86-.47-4.74,0-8.16.16-11.27.47v-3.19c4.9-1.79,9.02-5.29,14.61-12.28l15.62-19.17,1.86,2.8Z"/>
  </g>
</svg>
