<?xml version="1.0" encoding="UTF-8"?>
<svg id="Camada_1" xmlns="http://www.w3.org/2000/svg" xmlns:xlink="http://www.w3.org/1999/xlink" version="1.1" viewBox="0 0 207.24 203.4">
  <!-- Generator: Adobe Illustrator 30.2.1, SVG Export Plug-In . SVG Version: 2.1.1 Build 1)  -->
  <defs>
    <style>
      .st0 {
        fill: url(#Gradiente_sem_nome_11);
      }

      .st1 {
        fill: #9393db;
      }
    </style>
    <linearGradient id="Gradiente_sem_nome_11" data-name="Gradiente sem nome 11" x1="59.92" y1="51.81" x2="193.15" y2="207.88" gradientUnits="userSpaceOnUse">
      <stop offset="0" stop-color="#1f27b5"/>
      <stop offset="1" stop-color="#5f10c4"/>
    </linearGradient>
  </defs>
  <path class="st0" d="M79.13,113.92L21.4,29.12C12.8,16.22,8.02,11.1-.39,9.58V1.43c8.79.38,28.86,1.71,46.45,1.71s37.65-1.33,46.26-1.71v8.16c-7.65,0-13.19,2.85-13.19,7.78,0,1.52.57,3.42,1.91,5.5l37.09,54.63,4.39,6.64,61.56,90.87c6.5,9.11,12.61,17.64,21.98,19.35v8.16c-8.03-.38-26.18-1.52-41.86-1.52-19.31,0-41.29,1.14-51.04,1.52v-8.16c7.83,0,13.38-2.84,13.38-7.78,0-1.71-.57-3.42-1.91-5.5l-40.91-60.33-4.59-6.83Z"/>
  <path class="st1" d="M122.58,71.71l10.46-13.75c8.98-11.57,13.38-21.63,13.38-29.78,0-10.63-7.84-17.64-23.7-18.97V1.43c15.1.76,31.16,1.33,44.35,1.33,11.65,0,20.07-.57,27.52-1.33v7.78c-10.9,3.6-22.94,13.85-35.74,29.97l-31.87,39.17-4.39-6.64Z"/>
  <path class="st1" d="M80.45,124.8l-10.31,13.4c-8.99,11.57-13.19,22-13.19,30.92,0,14.61,11.08,24.28,28.48,25.61v7.78c-15.3-.76-43.2-1.14-56.2-1.14-11.66,0-20.07.38-27.72,1.14v-7.78c12.04-4.36,22.18-12.9,35.94-29.97l38.41-46.79,4.59,6.83Z"/>
</svg>